<?xml version="1.0" encoding="UTF-8" standalone="no"?>
<!DOCTYPE svg PUBLIC "-//W3C//DTD SVG 1.1//EN"
 "http://www.w3.org/Graphics/SVG/1.1/DTD/svg11.dtd">
<!-- Generated by graphviz version 2.40.1 (0)
 -->
<!-- Title: G Pages: 1 -->
<svg width="332pt" height="107pt"
 viewBox="0.00 0.00 332.00 107.00" xmlns="http://www.w3.org/2000/svg" xmlns:xlink="http://www.w3.org/1999/xlink">
<g id="graph0" class="graph" transform="scale(1 1) rotate(0) translate(4 103)">
<title>G</title>
<polygon fill="#ffffff" stroke="transparent" points="-4,4 -4,-103 328,-103 328,4 -4,4"/>
<!-- 0 -->
<g id="node1" class="node">
<title>0</title>
<ellipse fill="#ffab38" stroke="#000000" cx="18" cy="-81" rx="18" ry="18"/>
<text text-anchor="middle" x="18" y="-77.3" font-family="Times-Roman" font-size="14.00" fill="#000000">0</text>
</g>
<!-- 6 -->
<g id="node2" class="node">
<title>6</title>
<ellipse fill="none" stroke="#000000" cx="90" cy="-45" rx="18" ry="18"/>
<text text-anchor="middle" x="90" y="-41.3" font-family="Times-Roman" font-size="14.00" fill="#000000">6</text>
</g>
<!-- 0&#45;&gt;6 -->
<g id="edge1" class="edge">
<title>0&#45;&gt;6</title>
<path fill="none" stroke="#000000" d="M34.3379,-72.831C43.2674,-68.3663 54.525,-62.7375 64.5757,-57.7121"/>
<polygon fill="#000000" stroke="#000000" points="66.3477,-60.7393 73.7267,-53.1366 63.2172,-54.4783 66.3477,-60.7393"/>
</g>
<!-- 5 -->
<g id="node7" class="node">
<title>5</title>
<ellipse fill="none" stroke="#000000" cx="162" cy="-72" rx="18" ry="18"/>
<text text-anchor="middle" x="162" y="-68.3" font-family="Times-Roman" font-size="14.00" fill="#000000">5</text>
</g>
<!-- 0&#45;&gt;5 -->
<g id="edge7" class="edge">
<title>0&#45;&gt;5</title>
<path fill="none" stroke="#000000" d="M36.2377,-79.8601C60.799,-78.3251 104.7526,-75.578 133.6459,-73.7721"/>
<polygon fill="#000000" stroke="#000000" points="134.1482,-77.2477 143.9104,-73.1306 133.7115,-70.2613 134.1482,-77.2477"/>
</g>
<!-- 4 -->
<g id="node4" class="node">
<title>4</title>
<ellipse fill="none" stroke="#000000" cx="162" cy="-18" rx="18" ry="18"/>
<text text-anchor="middle" x="162" y="-14.3" font-family="Times-Roman" font-size="14.00" fill="#000000">4</text>
</g>
<!-- 6&#45;&gt;4 -->
<g id="edge5" class="edge">
<title>6&#45;&gt;4</title>
<path fill="none" stroke="#000000" d="M107.063,-38.6014C115.5814,-35.407 126.0773,-31.471 135.6048,-27.8982"/>
<polygon fill="#000000" stroke="#000000" points="136.9251,-31.1411 145.0595,-24.3527 134.4672,-24.5868 136.9251,-31.1411"/>
</g>
<!-- 6&#45;&gt;5 -->
<g id="edge8" class="edge">
<title>6&#45;&gt;5</title>
<path fill="none" stroke="#000000" d="M107.063,-51.3986C115.5814,-54.593 126.0773,-58.529 135.6048,-62.1018"/>
<polygon fill="#000000" stroke="#000000" points="134.4672,-65.4132 145.0595,-65.6473 136.9251,-58.8589 134.4672,-65.4132"/>
</g>
<!-- 1 -->
<g id="node3" class="node">
<title>1</title>
<ellipse fill="#ffab38" stroke="#000000" cx="18" cy="-18" rx="18" ry="18"/>
<text text-anchor="middle" x="18" y="-14.3" font-family="Times-Roman" font-size="14.00" fill="#000000">1</text>
</g>
<!-- 1&#45;&gt;6 -->
<g id="edge6" class="edge">
<title>1&#45;&gt;6</title>
<path fill="none" stroke="#000000" d="M35.063,-24.3986C43.5814,-27.593 54.0773,-31.529 63.6048,-35.1018"/>
<polygon fill="#000000" stroke="#000000" points="62.4672,-38.4132 73.0595,-38.6473 64.9251,-31.8589 62.4672,-38.4132"/>
</g>
<!-- 1&#45;&gt;4 -->
<g id="edge2" class="edge">
<title>1&#45;&gt;4</title>
<path fill="none" stroke="#000000" d="M36.2377,-18C60.799,-18 104.7526,-18 133.6459,-18"/>
<polygon fill="#000000" stroke="#000000" points="133.9104,-21.5001 143.9104,-18 133.9103,-14.5001 133.9104,-21.5001"/>
</g>
<!-- 3 -->
<g id="node5" class="node">
<title>3</title>
<ellipse fill="none" stroke="#000000" cx="234" cy="-45" rx="18" ry="18"/>
<text text-anchor="middle" x="234" y="-41.3" font-family="Times-Roman" font-size="14.00" fill="#000000">3</text>
</g>
<!-- 4&#45;&gt;3 -->
<g id="edge9" class="edge">
<title>4&#45;&gt;3</title>
<path fill="none" stroke="#000000" d="M179.063,-24.3986C187.5814,-27.593 198.0773,-31.529 207.6048,-35.1018"/>
<polygon fill="#000000" stroke="#000000" points="206.4672,-38.4132 217.0595,-38.6473 208.9251,-31.8589 206.4672,-38.4132"/>
</g>
<!-- 2 -->
<g id="node6" class="node">
<title>2</title>
<ellipse fill="#02e8d5" stroke="#000000" cx="306" cy="-45" rx="18" ry="18"/>
<text text-anchor="middle" x="306" y="-41.3" font-family="Times-Roman" font-size="14.00" fill="#000000">2</text>
</g>
<!-- 3&#45;&gt;2 -->
<g id="edge3" class="edge">
<title>3&#45;&gt;2</title>
<path fill="none" stroke="#000000" d="M252.1686,-45C259.869,-45 269.0257,-45 277.5834,-45"/>
<polygon fill="#000000" stroke="#000000" points="277.5868,-48.5001 287.5867,-45 277.5867,-41.5001 277.5868,-48.5001"/>
</g>
<!-- 5&#45;&gt;3 -->
<g id="edge4" class="edge">
<title>5&#45;&gt;3</title>
<path fill="none" stroke="#000000" d="M179.063,-65.6014C187.5814,-62.407 198.0773,-58.471 207.6048,-54.8982"/>
<polygon fill="#000000" stroke="#000000" points="208.9251,-58.1411 217.0595,-51.3527 206.4672,-51.5868 208.9251,-58.1411"/>
</g>
</g>
</svg>
